<?xml version="1.0" encoding="UTF-8" standalone="no"?>
<!-- Created with Inkscape (http://www.inkscape.org/) -->

<svg
   version="1.1"
   id="svg2"
   width="467.86667"
   height="248.18668"
   viewBox="0 0 467.86667 248.18668"
   sodipodi:docname="01_nw_kiwh_sm_preferred_WHT.eps"
   xmlns:inkscape="http://www.inkscape.org/namespaces/inkscape"
   xmlns:sodipodi="http://sodipodi.sourceforge.net/DTD/sodipodi-0.dtd"
   xmlns="http://www.w3.org/2000/svg"
   xmlns:svg="http://www.w3.org/2000/svg">
  <defs
     id="defs6" />
  <sodipodi:namedview
     id="namedview4"
     pagecolor="#ffffff"
     bordercolor="#000000"
     borderopacity="0.25"
     inkscape:showpageshadow="2"
     inkscape:pageopacity="0.0"
     inkscape:pagecheckerboard="0"
     inkscape:deskcolor="#d1d1d1" />
  <g
     id="g8"
     inkscape:groupmode="layer"
     inkscape:label="ink_ext_XXXXXX"
     transform="matrix(1.3333333,0,0,-1.3333333,0,248.18667)">
    <g
       id="g10"
       transform="scale(0.1)">
      <path
         d="m 1119.53,364.531 -33.03,0.02 -89.664,113.129 -49.734,-50.34 -0.032,-62.711 -26.355,0.019 0.133,233.5 26.351,-0.019 -0.074,-139.438 134.175,139.368 34.02,-0.02 -100.13,-102.019 104.34,-131.489"
         style="fill:#ffffff;fill-opacity:1;fill-rule:nonzero;stroke:none"
         id="path12" />
      <path
         d="m 1170.9,442.238 c -8.65,-6.457 -12.98,-15.238 -12.98,-26.359 -0.01,-5.559 1.16,-10.449 3.48,-14.68 2.32,-4.219 5.48,-7.828 9.47,-10.84 3.99,-3.007 8.59,-5.289 13.79,-6.839 5.21,-1.571 10.7,-2.348 16.46,-2.348 7.98,-0.012 15.46,1.148 22.44,3.5 6.99,2.316 13.08,5.539 18.3,9.656 5.2,4.102 9.31,8.992 12.3,14.66 3,5.684 4.5,11.961 4.5,18.852 l 0.01,16.68 c -6.43,1.781 -13.8,3.449 -22.1,5.011 -8.32,1.547 -17.79,2.348 -28.43,2.36 -16.18,0 -28.6,-3.219 -37.24,-9.653 z m 8.25,70.871 c -8.34,-2.328 -16.51,-5.379 -24.52,-9.148 l -7.66,21.008 c 9.56,4.429 19.23,7.941 29.02,10.492 9.79,2.551 21.03,3.828 33.7,3.82 23.57,-0.011 41.69,-5.859 54.36,-17.551 12.67,-11.671 19,-28.98 18.99,-51.878 l -0.06,-105.411 -24.69,0.02 0.02,26.019 c -6.01,-7.781 -14.08,-14.679 -24.2,-20.671 -10.12,-5.989 -22.85,-9 -38.19,-8.989 -8.01,0.012 -15.85,1.121 -23.52,3.36 -7.67,2.218 -14.56,5.621 -20.68,10.191 -6.11,4.551 -11,10.16 -14.67,16.848 -3.66,6.672 -5.49,14.562 -5.48,23.679 0,9.114 1.78,17.184 5.35,24.184 3.55,6.996 8.62,12.828 15.18,17.508 6.56,4.66 14.35,8.219 23.36,10.66 9.01,2.441 18.96,3.648 29.86,3.648 11.11,-0.007 20.79,-0.679 29.01,-2.019 8.23,-1.328 16.24,-3.129 24.02,-5.34 v 6 c 0.01,15.563 -4.49,27.301 -13.49,35.191 -9,7.899 -21.62,11.86 -37.85,11.872 -10.23,0 -19.52,-1.161 -27.86,-3.493"
         style="fill:#ffffff;fill-opacity:1;fill-rule:nonzero;stroke:none"
         id="path14" />
      <path
         d="m 1362.4,413.441 c -0.01,-10.679 2.65,-18.132 7.99,-22.363 5.34,-4.219 12.33,-6.328 21.01,-6.34 4.44,0 8.62,0.442 12.51,1.321 3.89,0.882 8.06,2.453 12.51,4.66 l -0.01,-22.008 c -4.46,-2.449 -9.18,-4.289 -14.18,-5.5 -5,-1.211 -10.62,-1.82 -16.85,-1.813 -6.89,0 -13.34,0.891 -19.35,2.672 -6,1.782 -11.16,4.61 -15.5,8.512 -4.33,3.898 -7.72,8.949 -10.17,15.18 -2.44,6.218 -3.66,13.687 -3.65,22.359 l 0.06,104.07 -24.02,0.02 0.01,22.687 24.02,-0.019 0.03,52.031 25.68,-0.012 -0.03,-52.027 54.71,-0.031 -0.01,-22.692 -54.71,0.032 -0.05,-100.739"
         style="fill:#ffffff;fill-opacity:1;fill-rule:nonzero;stroke:none"
         id="path16" />
      <path
         d="m 1448.17,515.129 0.02,21.691 145.44,-0.082 -0.01,-16.347 -114.83,-134.371 114.75,-0.059 -0.01,-21.68 -149.44,0.078 0.01,16.34 114.49,134.371 -110.42,0.059"
         style="fill:#ffffff;fill-opacity:1;fill-rule:nonzero;stroke:none"
         id="path18" />
      <path
         d="m 1756.11,597.691 -0.13,-233.5 -26.36,0.008 0.13,233.5 26.36,-0.008"
         style="fill:#ffffff;fill-opacity:1;fill-rule:nonzero;stroke:none"
         id="path20" />
      <path
         d="m 1837.36,364.141 -25.69,0.019 0.1,172.461 25.68,-0.019 -0.01,-30.032 c 5.78,9.352 13.35,17.289 22.7,23.852 9.34,6.539 21.46,9.816 36.36,9.808 10.45,0 19.73,-1.671 27.85,-5.011 8.11,-3.34 15.01,-8.078 20.67,-14.188 5.67,-6.121 10,-13.41 13,-21.859 2.99,-8.461 4.49,-17.793 4.49,-28.024 l -0.06,-107.078 -25.69,0.012 0.06,100.738 c 0,16.012 -4.1,28.7 -12.32,38.039 -8.23,9.352 -20.01,14.02 -35.36,14.032 -7.33,0.007 -14.17,-1.27 -20.51,-3.832 -6.34,-2.547 -11.84,-6.207 -16.52,-11 -4.67,-4.77 -8.29,-10.5 -10.85,-17.168 -2.56,-6.672 -3.84,-14.012 -3.85,-22.012 l -0.05,-98.738"
         style="fill:#ffffff;fill-opacity:1;fill-rule:nonzero;stroke:none"
         id="path22" />
      <path
         d="m 2122.42,390.512 c -3.24,-6.34 -7.57,-11.742 -13.03,-16.172 -5.45,-4.461 -11.9,-7.852 -19.35,-10.168 -7.45,-2.332 -15.51,-3.5 -24.18,-3.5 -12.46,0.008 -25.02,2.308 -37.69,6.867 -12.68,4.563 -23.9,10.742 -33.68,18.52 l 13.02,18.339 c 9.33,-7.109 19.06,-12.57 29.17,-16.347 10.12,-3.789 20.29,-5.68 30.52,-5.692 10.45,0 19.02,2.442 25.69,7.332 6.68,4.879 10.01,11.547 10.02,20.008 v 0.66 c 0,4.223 -1.16,7.891 -3.49,11.012 -2.34,3.109 -5.51,5.848 -9.5,8.18 -4.01,2.34 -8.63,4.39 -13.85,6.179 -5.23,1.782 -10.62,3.45 -16.17,5.008 -6.67,2 -13.4,4.172 -20.18,6.524 -6.78,2.328 -12.9,5.277 -18.34,8.847 -5.45,3.563 -9.9,8 -13.34,13.34 -3.44,5.352 -5.17,12.031 -5.16,20.02 v 0.679 c 0,7.332 1.45,14.063 4.36,20.172 2.88,6.11 6.94,11.34 12.17,15.68 5.23,4.332 11.46,7.648 18.69,9.988 7.23,2.321 15.07,3.492 23.52,3.481 10.67,0 21.46,-1.739 32.35,-5.168 10.89,-3.469 20.79,-8.09 29.69,-13.871 l -11.69,-19.34 c -8.01,5.109 -16.4,9.18 -25.18,12.191 -8.79,3.008 -17.4,4.508 -25.85,4.508 -10.23,0.012 -18.35,-2.367 -24.35,-7.148 -6.01,-4.789 -9.01,-10.743 -9.02,-17.852 v -0.66 c 0,-4 1.22,-7.508 3.66,-10.508 2.45,-3.012 5.72,-5.621 9.84,-7.84 4.11,-2.242 8.84,-4.242 14.17,-6.019 5.34,-1.774 10.89,-3.563 16.68,-5.34 6.67,-2.012 13.28,-4.242 19.85,-6.692 6.54,-2.449 12.5,-5.558 17.83,-9.339 5.34,-3.801 9.62,-8.352 12.84,-13.692 3.21,-5.34 4.83,-11.898 4.82,-19.679 v -0.668 c 0,-8.231 -1.62,-15.5 -4.84,-21.84"
         style="fill:#ffffff;fill-opacity:1;fill-rule:nonzero;stroke:none"
         id="path24" />
      <path
         d="m 2197.98,412.98 c -0.01,-10.671 2.65,-18.128 7.99,-22.351 5.34,-4.231 12.33,-6.34 21.01,-6.348 4.44,0 8.62,0.438 12.51,1.321 3.89,0.878 8.06,2.449 12.51,4.66 l -0.01,-22.012 c -4.46,-2.449 -9.18,-4.281 -14.18,-5.5 -5,-1.211 -10.62,-1.82 -16.84,-1.82 -6.9,0.011 -13.35,0.898 -19.36,2.679 -6,1.782 -11.16,4.61 -15.5,8.512 -4.33,3.899 -7.72,8.949 -10.16,15.188 -2.45,6.222 -3.67,13.679 -3.66,22.351 l 0.06,104.07 -24.02,0.02 0.01,22.691 24.02,-0.019 0.03,52.027 25.68,-0.008 -0.02,-52.031 54.7,-0.031 -0.01,-22.688 -54.71,0.028 -0.05,-100.739"
         style="fill:#ffffff;fill-opacity:1;fill-rule:nonzero;stroke:none"
         id="path26" />
      <path
         d="m 2292.01,363.891 0.1,172.461 25.69,-0.012 -0.1,-172.461 z m -1.55,210.148 0.02,28.359 29.35,-0.019 -0.01,-28.359 -29.36,0.019"
         style="fill:#ffffff;fill-opacity:1;fill-rule:nonzero;stroke:none"
         id="path28" />
      <path
         d="m 2403.78,412.859 c 0,-10.668 2.66,-18.121 8,-22.339 5.33,-4.239 12.33,-6.348 21,-6.348 4.45,-0.012 8.62,0.43 12.52,1.316 3.89,0.891 8.05,2.442 12.51,4.66 l -0.01,-22.007 c -4.46,-2.461 -9.18,-4.282 -14.18,-5.5 -5.01,-1.211 -10.63,-1.821 -16.85,-1.821 -6.9,0 -13.34,0.899 -19.35,2.68 -6,1.77 -11.17,4.621 -15.5,8.512 -4.33,3.886 -7.73,8.949 -10.17,15.179 -2.44,6.231 -3.66,13.688 -3.66,22.36 l 0.06,104.07 -24.02,0.008 0.02,22.691 24.02,-0.011 0.02,52.031 25.69,-0.02 -0.03,-52.031 54.71,-0.027 -0.02,-22.692 -54.7,0.032 -0.06,-100.743"
         style="fill:#ffffff;fill-opacity:1;fill-rule:nonzero;stroke:none"
         id="path30" />
      <path
         d="m 2617.99,536.172 25.35,-0.012 -0.08,-172.461 -25.36,0.012 0.01,30.019 c -5.78,-9.332 -13.35,-17.281 -22.68,-23.839 -9.35,-6.539 -21.48,-9.821 -36.37,-9.821 -10.45,0.012 -19.74,1.692 -27.86,5.032 -8.11,3.328 -14.99,8.058 -20.67,14.179 -5.66,6.11 -9.99,13.41 -12.99,21.86 -3,8.449 -4.49,17.789 -4.48,28.019 l 0.05,107.078 25.68,-0.008 -0.06,-100.742 c -0.01,-16.019 4.11,-28.699 12.33,-38.039 8.22,-9.328 20.01,-14.019 35.35,-14.027 7.34,0 14.18,1.269 20.52,3.828 6.34,2.559 11.78,6.211 16.35,10.988 4.56,4.793 8.17,10.5 10.86,17.172 2.66,6.68 3.99,14.012 4,22.02 l 0.05,98.742"
         style="fill:#ffffff;fill-opacity:1;fill-rule:nonzero;stroke:none"
         id="path32" />
      <path
         d="m 2727.34,412.691 c 0,-10.679 2.65,-18.132 8,-22.359 5.33,-4.23 12.34,-6.344 21.01,-6.352 4.44,0 8.61,0.442 12.51,1.329 3.89,0.882 8.06,2.441 12.51,4.66 l -0.01,-22.008 c -4.45,-2.449 -9.18,-4.289 -14.18,-5.5 -5.02,-1.211 -10.63,-1.82 -16.85,-1.813 -6.9,0 -13.34,0.883 -19.34,2.672 -6.01,1.782 -11.18,4.61 -15.52,8.52 -4.33,3.879 -7.71,8.941 -10.15,15.172 -2.46,6.218 -3.67,13.679 -3.67,22.359 l 0.06,104.07 -24.02,0.02 0.01,22.68 24.02,-0.02 0.03,52.027 h 25.69 l -0.03,-52.039 54.7,-0.031 -0.01,-22.68 -54.7,0.032 -0.06,-100.739"
         style="fill:#ffffff;fill-opacity:1;fill-rule:nonzero;stroke:none"
         id="path34" />
      <path
         d="m 2940.18,459.27 c -0.66,7.781 -2.26,15.23 -4.8,22.351 -2.53,7.109 -6.07,13.348 -10.6,18.688 -4.52,5.339 -10.05,9.613 -16.56,12.851 -6.54,3.231 -14.1,4.852 -22.72,4.852 -7.52,0 -14.48,-1.5 -20.89,-4.492 -6.41,-3 -12.05,-7.11 -16.92,-12.34 -4.86,-5.219 -8.84,-11.379 -11.94,-18.5 -3.1,-7.121 -5.1,-14.91 -5.98,-23.352 z m -103.76,-43.801 c 3.54,-7.239 8.1,-13.36 13.66,-18.36 5.56,-5.007 11.78,-8.8 18.67,-11.359 6.9,-2.559 14.12,-3.84 21.69,-3.84 12,-0.012 22.29,2.211 30.85,6.649 8.57,4.453 16.41,10.339 23.53,17.671 l 16,-14.351 c -8.67,-9.789 -18.58,-17.617 -29.69,-23.508 -11.13,-5.883 -24.93,-8.82 -41.38,-8.812 -11.79,0 -22.9,2.179 -33.34,6.519 -10.46,4.344 -19.6,10.461 -27.42,18.363 -7.84,7.899 -14.05,17.411 -18.67,28.528 -4.61,11.133 -6.91,23.363 -6.91,36.711 0.01,12.449 2.07,24.179 6.18,35.172 4.13,11.019 9.87,20.57 17.21,28.687 7.34,8.109 16.06,14.5 26.19,19.172 10.12,4.648 21.19,6.988 33.2,6.98 12.68,-0.011 24.01,-2.402 34.02,-7.191 10,-4.781 18.45,-11.301 25.34,-19.52 6.89,-8.242 12.11,-17.921 15.65,-29.031 3.56,-11.129 5.34,-23.027 5.33,-35.711 0,-1.109 0,-2.328 0,-3.668 0,-1.332 -0.12,-2.781 -0.34,-4.34 l -136.43,0.079 c 0.88,-9.329 3.1,-17.618 6.66,-24.84"
         style="fill:#ffffff;fill-opacity:1;fill-rule:nonzero;stroke:none"
         id="path36" />
      <path
         d="m 3184.73,535.191 -0.01,-22.019 -54.37,0.027 -0.08,-149.769 -25.69,0.019 0.08,149.77 -23.68,0.011 0.01,22.348 23.68,-0.008 0.01,15.008 c 0.01,18.902 4.52,33.242 13.55,43.024 9,9.777 21.84,14.668 38.52,14.66 6.01,-0.012 11.17,-0.34 15.51,-1.012 4.34,-0.668 8.61,-1.789 12.84,-3.34 l -0.01,-22.359 c -4.67,1.34 -8.9,2.41 -12.67,3.187 -3.78,0.774 -7.9,1.16 -12.35,1.172 -20.01,0.012 -30.03,-12.219 -30.04,-36.68 l -0.01,-14.011 54.71,-0.028"
         style="fill:#ffffff;fill-opacity:1;fill-rule:nonzero;stroke:none"
         id="path38" />
      <path
         d="m 3343.65,475.5 c -3.24,8.199 -7.73,15.371 -13.51,21.461 -5.78,6.098 -12.55,10.937 -20.33,14.488 -7.79,3.563 -16.24,5.34 -25.35,5.352 -9.35,0 -17.91,-1.719 -25.69,-5.16 -7.79,-3.442 -14.41,-8.192 -19.86,-14.301 -5.45,-6.09 -9.74,-13.18 -12.85,-21.281 -3.13,-8.098 -4.68,-16.797 -4.69,-26.118 0,-9.312 1.6,-18.082 4.82,-26.293 3.23,-8.207 7.67,-15.316 13.34,-21.308 5.66,-5.981 12.39,-10.758 20.17,-14.309 7.78,-3.551 16.23,-5.332 25.35,-5.332 9.35,-0.008 17.9,1.699 25.69,5.133 7.78,3.438 14.45,8.148 20.03,14.129 5.55,6 9.9,13.027 13.01,21.129 3.11,8.09 4.68,16.789 4.68,26.121 0.01,9.32 -1.6,18.078 -4.81,26.289 z m 24.31,-60.672 c -4.57,-10.996 -10.86,-20.617 -18.86,-28.828 -8.01,-8.238 -17.58,-14.73 -28.7,-19.512 -11.12,-4.769 -23.14,-7.148 -36.03,-7.136 -12.9,0 -24.8,2.398 -35.68,7.179 -10.9,4.789 -20.36,11.239 -28.34,19.367 -8.01,8.122 -14.23,17.633 -18.68,28.524 -4.44,10.898 -6.65,22.476 -6.65,34.707 0.01,12.23 2.24,23.84 6.69,34.851 4.46,11 10.7,20.622 18.7,28.84 8,8.231 17.52,14.719 28.53,19.5 11,4.77 23.08,7.149 36.2,7.149 12.9,-0.008 24.84,-2.41 35.85,-7.18 11.01,-4.801 20.51,-11.25 28.52,-19.367 7.99,-8.133 14.21,-17.641 18.65,-28.531 4.45,-10.903 6.67,-22.481 6.66,-34.7 0,-12.242 -2.3,-23.839 -6.86,-34.863"
         style="fill:#ffffff;fill-opacity:1;fill-rule:nonzero;stroke:none"
         id="path40" />
      <path
         d="m 3438.49,363.262 -25.68,0.008 0.08,172.46 25.69,-0.011 -0.02,-45.039 c 3.1,7.121 7.01,13.691 11.68,19.679 4.67,6 10.02,11.172 16.02,15.5 6.01,4.34 12.56,7.621 19.68,9.832 7.12,2.219 14.79,3.207 23.02,2.989 L 3508.95,511 h -2 c -9.34,0.012 -18.19,-1.66 -26.53,-4.98 -8.34,-3.34 -15.63,-8.34 -21.85,-15.008 -6.24,-6.672 -11.13,-14.953 -14.7,-24.84 -3.55,-9.902 -5.34,-21.301 -5.35,-34.203 l -0.03,-68.707"
         style="fill:#ffffff;fill-opacity:1;fill-rule:nonzero;stroke:none"
         id="path42" />
      <path
         d="m 1062.08,239.129 21.68,-0.008 63.94,-195.1796 66.83,194.4296 27.68,-0.012 L 1158.69,3.23047 1136.34,3.25 1072.4,192.75 1007.92,3.32031 985.902,3.33203 902.637,238.551 l 28.683,-0.02 66.61,-194.5193 64.15,195.1173"
         style="fill:#ffffff;fill-opacity:1;fill-rule:nonzero;stroke:none"
         id="path44" />
      <path
         d="m 1393.42,116.961 c -3.22,8.211 -7.72,15.367 -13.49,21.469 -5.79,6.09 -12.57,10.941 -20.35,14.48 -7.78,3.559 -16.23,5.34 -25.34,5.34 -9.34,0.012 -17.91,-1.719 -25.7,-5.141 -7.78,-3.437 -14.4,-8.199 -19.85,-14.3 -5.45,-6.09 -9.74,-13.18 -12.86,-21.289 -3.12,-8.098 -4.67,-16.801 -4.68,-26.1098 0,-9.3204 1.6,-18.0899 4.83,-26.2891 3.21,-8.2227 7.66,-15.3203 13.33,-21.3125 5.66,-5.9883 12.38,-10.7578 20.17,-14.3203 7.78,-3.5469 16.23,-5.3281 25.35,-5.3399 9.34,0 17.9,1.711 25.68,5.1524 7.79,3.4297 14.46,8.1406 20.03,14.1289 5.56,5.9805 9.9,13.0312 13.02,21.1211 3.11,8.0976 4.68,16.8008 4.68,26.1211 0.01,9.3164 -1.61,18.0781 -4.82,26.2891 z m 24.32,-60.6602 c -4.57,-11.0117 -10.86,-20.6289 -18.86,-28.8399 -8.02,-8.2304 -17.58,-14.7304 -28.7,-19.51168 -11.12,-4.76953 -23.14,-7.148439 -36.03,-7.148439 -12.9,0.007813 -24.8,2.410159 -35.69,7.187499 -10.89,4.79302 -20.34,11.25002 -28.34,19.37112 -8.01,8.1211 -14.23,17.6289 -18.67,28.5312 -4.44,10.8985 -6.66,22.461 -6.65,34.6992 0.01,12.2192 2.23,23.8402 6.69,34.8512 4.46,11.008 10.69,20.618 18.7,28.848 8.01,8.223 17.52,14.711 28.53,19.492 11.01,4.778 23.07,7.16 36.2,7.149 12.89,0 24.84,-2.399 35.85,-7.192 11.01,-4.777 20.51,-11.238 28.51,-19.347 8,-8.141 14.22,-17.641 18.66,-28.539 4.44,-10.911 6.66,-22.473 6.65,-34.7036 0,-12.2265 -2.29,-23.8398 -6.85,-34.8476"
         style="fill:#ffffff;fill-opacity:1;fill-rule:nonzero;stroke:none"
         id="path46" />
      <path
         d="m 1609.93,159.77 c 3.9,4.218 8.29,7.878 13.18,11 4.9,3.109 10.4,5.55 16.52,7.332 6.12,1.769 12.96,2.648 20.52,2.648 20.01,-0.012 35.69,-6.191 47.02,-18.531 11.33,-12.348 16.99,-29.321 16.98,-50.887 l -0.05,-106.74216 -25.69,0.01954 0.06,100.74262 c 0.01,16.679 -3.94,29.519 -11.83,38.539 -7.89,9 -18.83,13.507 -32.84,13.507 -6.46,0.012 -12.57,-1.148 -18.35,-3.476 -5.79,-2.34 -10.85,-5.781 -15.19,-10.344 -4.33,-4.547 -7.79,-10.156 -10.35,-16.828 -2.56,-6.668 -3.84,-14.238 -3.84,-22.691 l -0.06,-99.39884 -25.35,0.01953 0.06,101.39831 c 0.01,16.231 -3.94,28.863 -11.82,37.871 -7.9,9.012 -18.74,13.512 -32.52,13.52 -6.89,0 -13.23,-1.321 -19.02,-3.989 -5.78,-2.671 -10.84,-6.441 -15.18,-11.332 -4.34,-4.886 -7.73,-10.628 -10.18,-17.168 -2.46,-6.558 -3.68,-13.851 -3.69,-21.839 l -0.05,-98.41053 -25.68,0.00781 0.09,172.46072 25.68,-0.008 -0.01,-29.031 c 2.89,4.219 6.06,8.328 9.51,12.34 3.45,4 7.4,7.5 11.85,10.512 4.45,2.976 9.45,5.367 15.02,7.148 5.55,1.77 12.01,2.66 19.35,2.66 14,-0.011 25.56,-3.3 34.68,-9.851 9.11,-6.571 16,-14.75 20.67,-24.539 3.11,4.66 6.62,9.109 10.51,13.34"
         style="fill:#ffffff;fill-opacity:1;fill-rule:nonzero;stroke:none"
         id="path48" />
      <path
         d="m 1897.6,100.23 c -0.66,7.79 -2.26,15.239 -4.8,22.36 -2.54,7.109 -6.07,13.34 -10.59,18.691 -4.54,5.328 -10.06,9.61 -16.58,12.84 -6.52,3.231 -14.09,4.848 -22.71,4.859 -7.52,0 -14.48,-1.5 -20.89,-4.5 -6.42,-3 -12.05,-7.109 -16.91,-12.332 -4.87,-5.226 -8.85,-11.398 -11.95,-18.507 -3.1,-7.121 -5.1,-14.903 -5.98,-23.352 z M 1793.84,56.4414 c 3.55,-7.25 8.1,-13.3633 13.66,-18.3633 5.56,-5.0195 11.78,-8.7968 18.68,-11.3593 6.89,-2.5704 14.12,-3.8399 21.68,-3.8477 12.01,0 22.29,2.2109 30.86,6.6602 8.55,4.4375 16.4,10.3281 23.52,17.6601 l 16.01,-14.3516 c -8.68,-9.7812 -18.58,-17.6093 -29.71,-23.49996 -11.12,-5.8789 -24.91,-8.820309 -41.36,-8.80859 -11.8,0 -22.91,2.17969 -33.36,6.50781 -10.45,4.35154 -19.59,10.46094 -27.42,18.37114 -7.83,7.8906 -14.05,17.3984 -18.66,28.5312 -4.61,11.1172 -6.92,23.3477 -6.91,36.6992 0.01,12.4494 2.07,24.1684 6.19,35.1794 4.12,11.02 9.85,20.559 17.2,28.68 7.34,8.121 16.07,14.5 26.19,19.172 10.12,4.66 21.19,6.976 33.2,6.976 12.67,0 24.01,-2.41 34.02,-7.179 10,-4.797 18.44,-11.297 25.34,-19.528 6.89,-8.242 12.11,-17.91 15.66,-29.043 3.55,-11.117 5.32,-23.007 5.31,-35.6871 0,-1.1093 0,-2.332 0,-3.6718 0,-1.3282 -0.11,-2.7891 -0.33,-4.3399 l -136.43,0.0821 c 0.88,-9.3399 3.1,-17.6329 6.66,-24.8399"
         style="fill:#ffffff;fill-opacity:1;fill-rule:nonzero;stroke:none"
         id="path50" />
      <path
         d="m 1986.28,4.44922 -25.69,0.01172 0.1,172.46106 25.68,-0.012 -0.01,-30.019 c 5.78,9.328 13.35,17.281 22.69,23.828 9.35,6.562 21.47,9.832 36.37,9.82 10.45,0 19.73,-1.68 27.85,-5.008 8.12,-3.351 15.01,-8.082 20.67,-14.191 5.67,-6.121 10,-13.41 13,-21.86 3,-8.449 4.49,-17.789 4.49,-28.011 l -0.06,-107.07837 -25.69,0.00781 0.06,100.74256 c 0.01,16 -4.11,28.679 -12.32,38.031 -8.23,9.34 -20.01,14.019 -35.35,14.027 -7.34,0 -14.18,-1.269 -20.52,-3.828 -6.34,-2.562 -11.84,-6.211 -16.52,-11 -4.67,-4.781 -8.29,-10.5 -10.85,-17.172 -2.56,-6.66 -3.84,-14.008 -3.85,-22.008 l -0.05,-98.74178"
         style="fill:#ffffff;fill-opacity:1;fill-rule:nonzero;stroke:none"
         id="path52" />
      <path
         d="m 2164.17,185.32 c 3.56,4.539 5.01,10.379 4.34,17.5 l -12,0.012 0.02,35.02 30.69,-0.02 -0.02,-30.023 c -0.01,-13.559 -3.02,-23.829 -9.03,-30.84 -6,-7.008 -15.34,-11.949 -28.02,-14.828 l -4,11.679 c 8.45,3.102 14.46,6.942 18.02,11.5"
         style="fill:#ffffff;fill-opacity:1;fill-rule:nonzero;stroke:none"
         id="path54" />
      <path
         d="m 2336.05,30.7813 c -3.23,-6.3399 -7.57,-11.7422 -13.02,-16.1719 -5.46,-4.4492 -11.91,-7.83987 -19.35,-10.16799 -7.46,-2.33203 -15.52,-3.492191 -24.19,-3.492191 -12.46,0.011719 -25.02,2.300781 -37.69,6.859371 -12.68,4.56251 -23.91,10.75001 -33.68,18.53121 l 13.02,18.3399 c 9.33,-7.1211 19.06,-12.5781 29.17,-16.3594 10.12,-3.789 20.29,-5.6719 30.52,-5.6797 10.46,-0.0117 19.02,2.4297 25.7,7.3203 6.67,4.8789 10.01,11.5508 10.01,20.0079 v 0.6718 c 0,4.211 -1.16,7.8907 -3.49,11 -2.33,3.1211 -5.5,5.8477 -9.51,8.1797 -4,2.3399 -8.61,4.3906 -13.83,6.1914 -5.23,1.7696 -10.63,3.4375 -16.19,5 -6.66,2.0078 -13.39,4.1797 -20.17,6.5196 -6.78,2.3281 -12.9,5.2773 -18.34,8.8593 -5.46,3.5508 -9.89,8.0004 -13.34,13.3394 -3.44,5.34 -5.16,12.02 -5.16,20.02 v 0.672 c 0.01,7.328 1.45,14.058 4.35,20.168 2.89,6.109 6.95,11.34 12.19,15.68 5.22,4.332 11.45,7.66 18.68,9.992 7.22,2.316 15.07,3.5 23.52,3.488 10.67,0 21.46,-1.738 32.36,-5.18 10.88,-3.468 20.78,-8.09 29.67,-13.871 l -11.68,-19.328 c -8,5.109 -16.4,9.168 -25.18,12.188 -8.79,2.992 -17.4,4.511 -25.85,4.511 -10.23,0.008 -18.35,-2.39 -24.36,-7.16 -6,-4.789 -9.01,-10.73 -9.01,-17.84 v -0.672 c 0,-4 1.22,-7.507 3.66,-10.5 2.45,-3.007 5.72,-5.628 9.84,-7.847 4.11,-2.231 8.84,-4.242 14.17,-6.012 5.34,-1.789 10.89,-3.57 16.68,-5.34 6.67,-2.019 13.28,-4.2381 19.84,-6.6873 6.56,-2.4531 12.5,-5.5703 17.84,-9.3515 5.34,-3.8008 9.62,-8.3516 12.84,-13.6914 3.22,-5.3282 4.83,-11.8985 4.82,-19.6797 v -0.6602 c 0,-8.2305 -1.62,-15.5078 -4.84,-21.8476"
         style="fill:#ffffff;fill-opacity:1;fill-rule:nonzero;stroke:none"
         id="path56" />
      <path
         d="m 2502.7,109.25 -0.06,-105.07812 -26.35,0.00781 0.12,233.50031 26.36,-0.008 -0.06,-103.742 134.77,-0.078 0.05,103.738 26.35,-0.008 -0.13,-233.49997 -26.34,0.00781 0.05,105.08216 -134.76,0.078"
         style="fill:#ffffff;fill-opacity:1;fill-rule:nonzero;stroke:none"
         id="path58" />
      <path
         d="m 2843.27,99.7109 c -0.67,7.7771 -2.26,15.2381 -4.8,22.3591 -2.55,7.11 -6.07,13.34 -10.61,18.68 -4.53,5.34 -10.04,9.621 -16.56,12.852 -6.53,3.238 -14.09,4.847 -22.71,4.847 -7.52,0.012 -14.48,-1.5 -20.89,-4.48 -6.42,-3.008 -12.06,-7.117 -16.93,-12.34 -4.86,-5.219 -8.84,-11.399 -11.94,-18.508 -3.09,-7.121 -5.1,-14.902 -5.97,-23.3397 z M 2739.5,55.9102 c 3.55,-7.2383 8.11,-13.3516 13.67,-18.3594 5.55,-5.0117 11.77,-8.7891 18.67,-11.3594 6.88,-2.5625 14.11,-3.832 21.68,-3.8398 12,0 22.29,2.207 30.86,6.6484 8.56,4.4492 16.39,10.3516 23.52,17.6719 l 16.01,-14.3633 c -8.68,-9.7695 -18.58,-17.6094 -29.7,-23.48829 -11.13,-5.8789 -24.92,-8.8320288 -41.37,-8.82031 -11.79,0.0117188 -22.9,2.19141 -33.35,6.51953 -10.45,4.35157 -19.59,10.46097 -27.42,18.37107 -7.84,7.8907 -14.05,17.3985 -18.67,28.5313 -4.61,11.1172 -6.91,23.3476 -6.9,36.6992 0.01,12.4489 2.07,24.1799 6.18,35.1799 4.13,11.019 9.85,20.558 17.21,28.679 7.33,8.11 16.06,14.508 26.19,19.168 10.11,4.661 21.18,6.993 33.19,6.981 12.68,0 24.01,-2.399 34.02,-7.18 10,-4.801 18.45,-11.308 25.35,-19.527 6.87,-8.231 12.11,-17.922 15.65,-29.031 3.56,-11.129 5.33,-23.02 5.32,-35.6996 0,-1.1094 0,-2.332 0,-3.6719 0,-1.3281 -0.11,-2.7812 -0.34,-4.3398 l -136.42,0.082 c 0.87,-9.332 3.1,-17.6328 6.65,-24.8515"
         style="fill:#ffffff;fill-opacity:1;fill-rule:nonzero;stroke:none"
         id="path60" />
      <path
         d="m 2932.61,81.6484 c -8.66,-6.4375 -12.98,-15.2187 -12.99,-26.3476 0,-5.5508 1.16,-10.4492 3.48,-14.6719 2.32,-4.2187 5.49,-7.8398 9.48,-10.8476 3.99,-3 8.59,-5.293 13.78,-6.8399 5.22,-1.5703 10.7,-2.3398 16.47,-2.3398 7.97,-0.0118 15.44,1.1484 22.44,3.4804 6.99,2.3399 13.08,5.5469 18.29,9.6563 5.21,4.1133 9.32,9 12.31,14.6836 2.99,5.6679 4.5,11.9375 4.5,18.8398 l 0.01,16.6797 c -6.43,1.7774 -13.8,3.4492 -22.11,5.0195 -8.32,1.5508 -17.79,2.3399 -28.42,2.3399 -16.18,0.0078 -28.6,-3.1992 -37.24,-9.6524 z m 8.25,70.8826 c -8.34,-2.332 -16.52,-5.383 -24.53,-9.16 l -7.65,21.027 c 9.56,4.434 19.23,7.93 29.02,10.481 9.78,2.551 21.01,3.832 33.69,3.82 23.57,-0.008 41.7,-5.859 54.37,-17.551 12.67,-11.679 19,-28.968 18.98,-51.867 l -0.06,-105.40991 -24.69,0.00782 0.02,26.01169 c -6,-7.7695 -14.07,-14.6601 -24.19,-20.65232 -10.13,-6.00781 -22.86,-9.007811 -38.2,-8.999999 -8.01,0 -15.85,1.132809 -23.51,3.351559 -7.68,2.23047 -14.57,5.62891 -20.68,10.19146 -6.12,4.5585 -11,10.1796 -14.67,16.8593 -3.67,6.668 -5.49,14.5703 -5.49,23.6875 0,9.1133 1.78,17.1602 5.36,24.1719 3.55,7.0117 8.61,12.8398 15.18,17.5117 6.56,4.6603 14.35,8.2183 23.35,10.6603 9.01,2.437 18.96,3.648 29.86,3.637 11.12,0 20.79,-0.668 29.02,-2.008 8.22,-1.34 16.23,-3.121 24.01,-5.352 v 6.012 c 0.01,15.551 -4.48,27.301 -13.48,35.187 -9,7.903 -21.63,11.864 -37.86,11.872 -10.23,0.011 -19.51,-1.168 -27.85,-3.489"
         style="fill:#ffffff;fill-opacity:1;fill-rule:nonzero;stroke:none"
         id="path62" />
      <path
         d="m 3093.39,3.83984 0.14,243.50016 25.68,-0.012 -0.13,-243.49597 -25.69,0.00781"
         style="fill:#ffffff;fill-opacity:1;fill-rule:nonzero;stroke:none"
         id="path64" />
      <path
         d="m 3205.16,52.8086 c 0,-10.668 2.66,-18.1172 8,-22.3398 5.33,-4.2383 12.33,-6.3477 21,-6.3594 4.45,0 8.63,0.4414 12.52,1.332 3.89,0.8789 8.06,2.4375 12.51,4.6602 l -0.01,-22.01176 c -4.46,-2.44921 -9.19,-4.28125 -14.19,-5.5 -5.01,-1.21093 -10.62,-1.828121 -16.84,-1.820309 -6.9,0 -13.34,0.890629 -19.35,2.679689 -6,1.78125 -11.17,4.60937 -15.51,8.51168 -4.33,3.8907 -7.72,8.9493 -10.15,15.1797 -2.45,6.2188 -3.67,13.6797 -3.66,22.3477 l 0.05,104.0707 -24.02,0.019 0.01,22.692 24.02,-0.02 0.03,52.031 25.69,-0.011 -0.03,-52.032 54.71,-0.027 -0.01,-22.68 -54.71,0.028 -0.06,-100.7504"
         style="fill:#ffffff;fill-opacity:1;fill-rule:nonzero;stroke:none"
         id="path66" />
      <path
         d="m 3322.54,3.71094 -25.68,0.01953 0.14,243.50753 25.68,-0.019 -0.06,-101.078 c 5.79,9.347 13.35,17.3 22.7,23.847 9.34,6.551 21.46,9.821 36.36,9.821 10.45,0 19.73,-1.68 27.85,-5.008 8.12,-3.352 15.01,-8.082 20.68,-14.199 5.66,-6.122 9.99,-13.403 13,-21.852 2.98,-8.469 4.49,-17.801 4.48,-28.031 l -0.06,-107.07837 -25.68,0.01953 0.06,100.73784 c 0.01,16.012 -4.11,28.692 -12.33,38.043 -8.22,9.34 -20.01,14.02 -35.35,14.028 -7.33,0 -14.18,-1.278 -20.52,-3.828 -6.34,-2.559 -11.84,-6.219 -16.51,-11 -4.68,-4.782 -8.29,-10.512 -10.85,-17.18 -2.57,-6.672 -3.85,-14.012 -3.85,-22.012 l -0.06,-98.73806"
         style="fill:#ffffff;fill-opacity:1;fill-rule:nonzero;stroke:none"
         id="path68" />
      <path
         d="M 236.902,790.051 V 1006.1 c 0,8.51 -6.894,15.4 -15.398,15.4 H 5.45703 C 2.44141,1021.5 0,1019.06 0,1016.05 c 0,-1.51 0.609375,-2.87 1.59766,-3.86 v 0 L 227.59,786.199 c 0.984,-0.988 2.351,-1.597 3.855,-1.597 3.016,0 5.457,2.437 5.457,5.449"
         style="fill:#ffffff;fill-opacity:1;fill-rule:nonzero;stroke:none"
         id="path70" />
      <path
         d="m 516.879,796.371 v 210.149 c 0,8.28 -6.707,14.98 -14.981,14.98 H 291.742 c -2.929,0 -5.304,-2.37 -5.304,-5.3 0,-1.47 0.593,-2.8 1.554,-3.76 v 0 L 507.82,792.609 c 0.957,-0.961 2.285,-1.55 3.75,-1.55 2.934,0 5.309,2.382 5.309,5.312"
         style="fill:#ffffff;fill-opacity:1;fill-rule:nonzero;stroke:none"
         id="path72" />
      <path
         d="m 796.855,796.371 v 210.149 c 0,8.28 -6.707,14.98 -14.98,14.98 H 571.719 c -2.93,0 -5.305,-2.37 -5.305,-5.3 0,-1.47 0.594,-2.8 1.555,-3.76 v 0 L 787.797,792.609 c 0.961,-0.961 2.285,-1.55 3.75,-1.55 2.933,0 5.308,2.382 5.308,5.312"
         style="fill:#ffffff;fill-opacity:1;fill-rule:nonzero;stroke:none"
         id="path74" />
      <path
         d="m 236.902,1076.34 v 210.16 c 0,8.27 -6.707,14.98 -14.976,14.98 H 11.7695 c -2.93356,0 -5.30856,-2.38 -5.30856,-5.31 0,-1.46 0.59375,-2.79 1.55469,-3.75 v 0 L 227.844,1072.59 c 0.961,-0.96 2.285,-1.55 3.754,-1.55 2.929,0 5.304,2.37 5.304,5.3"
         style="fill:#ffffff;fill-opacity:1;fill-rule:nonzero;stroke:none"
         id="path76" />
      <path
         d="m 516.879,1076.34 v 210.16 c 0,8.27 -6.707,14.98 -14.981,14.98 H 291.742 c -2.929,0 -5.304,-2.38 -5.304,-5.31 0,-1.46 0.593,-2.79 1.554,-3.75 v 0 L 507.82,1072.59 c 0.957,-0.96 2.285,-1.55 3.75,-1.55 2.934,0 5.309,2.37 5.309,5.3"
         style="fill:#ffffff;fill-opacity:1;fill-rule:nonzero;stroke:none"
         id="path78" />
      <path
         d="m 796.855,1122.63 v 166.95 c 0,6.57 -5.328,11.9 -11.898,11.9 H 618.012 c -2.332,0 -4.219,-1.89 -4.219,-4.22 0,-1.16 0.473,-2.22 1.234,-2.98 v 0 l 174.629,-174.63 c 0.766,-0.76 1.821,-1.23 2.985,-1.23 2.328,0 4.214,1.88 4.214,4.21"
         style="fill:#ffffff;fill-opacity:1;fill-rule:nonzero;stroke:none"
         id="path80" />
      <path
         d="m 1076.83,1139.46 v 151.24 c 0,5.95 -4.83,10.78 -10.78,10.78 H 914.816 c -2.105,0 -3.816,-1.71 -3.816,-3.82 0,-1.05 0.426,-2.01 1.117,-2.7 v 0 l 158.193,-158.19 c 0.69,-0.7 1.65,-1.13 2.7,-1.13 2.11,0 3.82,1.72 3.82,3.82"
         style="fill:#ffffff;fill-opacity:1;fill-rule:nonzero;stroke:none"
         id="path82" />
      <path
         d="m 236.902,1356.32 v 210.16 c 0,8.27 -6.707,14.97 -14.976,14.97 H 11.7695 c -2.93356,0 -5.30856,-2.37 -5.30856,-5.3 0,-1.47 0.59375,-2.79 1.55469,-3.76 v 0 L 227.844,1352.57 c 0.961,-0.96 2.285,-1.56 3.754,-1.56 2.929,0 5.304,2.38 5.304,5.31"
         style="fill:#ffffff;fill-opacity:1;fill-rule:nonzero;stroke:none"
         id="path84" />
      <path
         d="m 516.879,1402.61 v 166.94 c 0,6.58 -5.328,11.9 -11.899,11.9 H 338.035 c -2.332,0 -4.219,-1.88 -4.219,-4.21 0,-1.17 0.473,-2.22 1.235,-2.98 h 0.004 l 174.629,-174.63 c 0.761,-0.77 1.816,-1.24 2.98,-1.24 2.328,0 4.215,1.89 4.215,4.22"
         style="fill:#ffffff;fill-opacity:1;fill-rule:nonzero;stroke:none"
         id="path86" />
      <path
         d="m 796.855,1419.44 v 151.24 c 0,5.95 -4.828,10.77 -10.781,10.77 h -151.23 c -2.11,0 -3.821,-1.71 -3.821,-3.81 0,-1.06 0.426,-2.01 1.118,-2.71 v 0 l 158.195,-158.19 c 0.691,-0.69 1.644,-1.12 2.699,-1.12 2.11,0 3.82,1.71 3.82,3.82"
         style="fill:#ffffff;fill-opacity:1;fill-rule:nonzero;stroke:none"
         id="path88" />
      <path
         d="m 1076.83,1449.95 v 122.76 c 0,4.83 -3.92,8.74 -8.75,8.74 H 945.328 c -1.715,0 -3.101,-1.38 -3.101,-3.09 0,-0.86 0.347,-1.64 0.91,-2.2 v 0 l 128.403,-128.4 c 0.56,-0.56 1.33,-0.91 2.19,-0.91 1.71,0 3.1,1.39 3.1,3.1"
         style="fill:#ffffff;fill-opacity:1;fill-rule:nonzero;stroke:none"
         id="path90" />
      <path
         d="m 236.902,1682.59 v 166.94 c 0,6.57 -5.328,11.9 -11.898,11.9 H 58.0586 c -2.3281,0 -4.2188,-1.89 -4.2188,-4.22 0,-1.16 0.4727,-2.21 1.2383,-2.98 v 0 L 229.707,1679.61 c 0.762,-0.77 1.816,-1.24 2.981,-1.24 2.328,0 4.214,1.89 4.214,4.22"
         style="fill:#ffffff;fill-opacity:1;fill-rule:nonzero;stroke:none"
         id="path92" />
      <path
         d="m 516.879,1699.42 v 151.23 c 0,5.96 -4.824,10.78 -10.777,10.78 H 354.867 c -2.109,0 -3.82,-1.71 -3.82,-3.82 0,-1.06 0.426,-2.01 1.117,-2.7 v 0 l 158.195,-158.19 c 0.692,-0.69 1.645,-1.12 2.7,-1.12 2.109,0 3.82,1.71 3.82,3.82"
         style="fill:#ffffff;fill-opacity:1;fill-rule:nonzero;stroke:none"
         id="path94" />
      <path
         d="m 796.855,1729.93 v 122.75 c 0,4.83 -3.917,8.75 -8.75,8.75 H 665.352 c -1.711,0 -3.102,-1.39 -3.102,-3.1 0,-0.86 0.348,-1.63 0.91,-2.19 v 0 l 128.403,-128.41 c 0.562,-0.56 1.335,-0.91 2.191,-0.91 1.715,0 3.101,1.39 3.101,3.11"
         style="fill:#ffffff;fill-opacity:1;fill-rule:nonzero;stroke:none"
         id="path96" />
      <path
         d="m 1076.83,1729.93 v 122.75 c 0,4.83 -3.92,8.75 -8.75,8.75 H 945.328 c -1.715,0 -3.101,-1.39 -3.101,-3.1 0,-0.86 0.347,-1.63 0.91,-2.19 v 0 l 128.403,-128.41 c 0.56,-0.56 1.33,-0.91 2.19,-0.91 1.71,0 3.1,1.39 3.1,3.11"
         style="fill:#ffffff;fill-opacity:1;fill-rule:nonzero;stroke:none"
         id="path98" />
      <path
         d="M 1141.27,698.449 986.855,901.148 V 698.449 h -69.242 v 318.861 h 64.688 L 1131.71,820.98 v 196.33 h 69.23 V 698.449 h -59.67"
         style="fill:#ffffff;fill-opacity:1;fill-rule:nonzero;stroke:none"
         id="path100" />
      <path
         d="m 1447.16,820.07 c 0,35.981 -25.96,67.418 -64.22,67.418 -39.63,0 -63.32,-30.527 -63.32,-66.508 v -0.91 c 0,-35.98 25.96,-67.422 64.23,-67.422 39.63,0 63.31,30.532 63.31,66.512 z m -64.22,-127.082 c -75.62,0 -131.64,56.032 -131.64,126.172 v 0.91 c 0,70.157 56.48,127.086 132.55,127.086 75.61,0 131.64,-56.019 131.64,-126.176 v -0.91 c 0,-70.148 -56.49,-127.082 -132.55,-127.082"
         style="fill:#ffffff;fill-opacity:1;fill-rule:nonzero;stroke:none"
         id="path102" />
      <path
         d="m 1701.53,874.73 c -46,0 -74.24,-27.781 -74.24,-86.082 v -90.199 h -69.24 v 244.149 h 69.24 v -49.192 c 14.12,33.711 36.9,55.571 77.89,53.75 V 874.73 h -3.65"
         style="fill:#ffffff;fill-opacity:1;fill-rule:nonzero;stroke:none"
         id="path104" />
      <path
         d="m 1827.33,694.352 c -42.36,0 -71.06,16.847 -71.06,73.328 v 115.703 h -29.15 v 59.215 h 29.15 v 62.412 h 69.24 v -62.412 h 57.39 v -59.215 h -57.39 V 779.07 c 0,-15.929 6.83,-23.679 22.32,-23.679 12.75,0 24.14,3.187 34.16,8.66 v -55.582 c -14.58,-8.649 -31.43,-14.117 -54.66,-14.117"
         style="fill:#ffffff;fill-opacity:1;fill-rule:nonzero;stroke:none"
         id="path106" />
      <path
         d="m 2084.13,698.449 v 136.199 c 0,32.79 -15.49,49.645 -41.91,49.645 -26.42,0 -43.27,-16.855 -43.27,-49.645 V 698.449 h -69.24 v 332.521 h 69.24 V 907.992 c 15.94,20.485 36.44,39.164 71.51,39.164 52.39,0 82.91,-34.621 82.91,-90.644 V 698.449 h -69.24"
         style="fill:#ffffff;fill-opacity:1;fill-rule:nonzero;stroke:none"
         id="path108" />
      <path
         d="m 2472.93,696.629 h -62.41 l -46.91,149.859 -47.83,-149.859 h -61.95 l -75.16,245.969 h 70.14 l 39.18,-148.039 46.01,148.953 h 59.66 l 46.47,-149.41 40.09,148.496 H 2549 l -76.07,-245.969"
         style="fill:#ffffff;fill-opacity:1;fill-rule:nonzero;stroke:none"
         id="path110" />
      <path
         d="m 2683.25,891.586 c -28.69,0 -47.36,-20.5 -52.83,-51.926 h 104.31 c -4.1,30.977 -22.32,51.926 -51.48,51.926 z m 117.98,-95.195 h -169.9 c 6.83,-31.442 28.7,-47.832 59.67,-47.832 23.23,0 40.08,7.293 59.22,25.05 l 39.63,-35.078 c -22.78,-28.242 -55.58,-45.543 -99.76,-45.543 -73.34,0 -127.54,51.473 -127.54,126.172 v 0.91 c 0,69.692 49.65,127.086 120.7,127.086 81.54,0 118.89,-63.312 118.89,-132.554 v -0.911 c 0,-6.832 -0.45,-10.921 -0.91,-17.3"
         style="fill:#ffffff;fill-opacity:1;fill-rule:nonzero;stroke:none"
         id="path112" />
      <path
         d="m 2847.53,698.449 v 332.521 h 69.24 V 698.449 h -69.24"
         style="fill:#ffffff;fill-opacity:1;fill-rule:nonzero;stroke:none"
         id="path114" />
      <path
         d="m 2974.97,698.449 v 332.521 h 69.23 V 698.449 h -69.23"
         style="fill:#ffffff;fill-opacity:1;fill-rule:nonzero;stroke:none"
         id="path116" />
      <path
         d="m 3089.05,973.574 4.55,5.383 c 6.79,-6.125 13.29,-9.195 22.3,-9.195 8.74,0 14.5,4.64 14.5,11.047 v 0.195 c 0,6.031 -3.25,9.465 -16.91,12.355 -14.96,3.254 -21.83,8.081 -21.83,18.761 v 0.18 c 0,10.23 9.01,17.75 21.37,17.75 9.47,0 16.25,-2.7 22.85,-7.99 l -4.27,-5.66 c -6.05,4.92 -12.09,7.05 -18.77,7.05 -8.45,0 -13.84,-4.64 -13.84,-10.49 v -0.19 c 0,-6.13 3.34,-9.57 17.64,-12.64 14.5,-3.153 21.19,-8.454 21.19,-18.38 v -0.199 c 0,-11.145 -9.3,-18.383 -22.2,-18.383 -10.32,0 -18.77,3.437 -26.58,10.406"
         style="fill:#ffffff;fill-opacity:1;fill-rule:nonzero;stroke:none"
         id="path118" />
      <path
         d="m 3154.67,1029.12 h 7.43 l 23.69,-35.479 23.69,35.479 h 7.43 v -65.026 h -7.34 v 52.666 l -23.68,-34.83 h -0.38 l -23.69,34.75 v -52.586 h -7.15 v 65.026"
         style="fill:#ffffff;fill-opacity:1;fill-rule:nonzero;stroke:none"
         id="path120" />
    </g>
  </g>
</svg>
